<?xml version="1.0" encoding="UTF-8" standalone="no"?>
<svg width="87px" height="27px" viewBox="0 0 87 27" version="1.1" xmlns="http://www.w3.org/2000/svg" xmlns:xlink="http://www.w3.org/1999/xlink">
    <!-- Generator: Sketch 3.8.3 (29802) - http://www.bohemiancoding.com/sketch -->
    <title>onecall-logo-web</title>
    <desc>Created with Sketch.</desc>
    <defs></defs>
    <g id="Page-1" stroke="none" stroke-width="1" fill="none" fill-rule="evenodd">
        <g id="Artboard-2" transform="translate(-75.000000, -88.000000)" fill="#FFFFFF">
            <g id="onecall-logo-web" transform="translate(75.000000, 88.000000)">
                <path d="M38.6136794,14.7190127 L37.2716686,21.6527266 L33.9914106,21.6527266 L35.279741,14.951024 C35.6133266,13.2946157 35.1838831,12.817281 34.3019903,12.817281 C33.6578251,12.817281 32.8468671,13.2965174 32.1547729,13.9335975 L30.6517208,21.6527266 L27.3561256,21.6527266 L29.5742778,10.2423363 L32.1739445,10.2423363 L32.1969504,11.3529476 L32.2928083,11.3529476 C33.1037663,10.7196709 34.3671737,9.99320942 35.5136344,9.99320942 C37.8046386,9.98560249 39.2118328,11.6420108 38.6136794,14.7190127 L38.6136794,14.7190127 Z M49.9249137,13.3878005 C49.9249137,15.0194864 48.2550688,17.0010908 42.8314278,17.21979 C42.9023627,18.5205745 43.4276641,19.1215217 44.5242786,19.1215217 C45.4061715,19.1215217 46.6465729,18.8857069 48.0786902,18.1288177 L48.8896482,20.5192945 C47.3855429,21.4379356 45.6502028,21.9159127 43.8839477,21.89805 C40.6631217,21.89805 39.3517854,19.8631971 39.3517854,17.2369055 C39.3517854,13.4752802 41.8325883,10.0198337 45.9832362,10.0198337 C48.9893405,10.0217354 49.9191623,11.7485078 49.9191623,13.3801936 L49.9249137,13.3878005 Z M46.6101469,13.6236153 C46.6101469,13.1272633 46.2765614,12.8191828 45.75126,12.8191828 C44.3210599,12.8191828 43.4621729,13.7700486 43.0806584,15.0670297 C45.4598519,14.9415154 46.6043955,14.5174292 46.6043955,13.6179101 L46.6101469,13.6236153 Z M57.7296654,18.9960074 C55.630377,18.9960074 54.662212,17.7427662 54.662212,15.4701968 C54.662212,11.6382074 56.3550629,8.91682926 59.7426817,8.91682926 C61.0310121,8.91682926 62.1506326,9.24773058 62.9385847,10.0578683 L64.7752224,7.85756469 C63.7495426,6.74505164 61.8419701,6.01288493 59.8385396,6.01288493 C53.5886033,6.01288493 50.9659307,10.7443934 50.9659307,15.9266124 C50.9659307,19.4277005 52.7067105,21.9132638 56.8094294,21.9132638 C59.0985165,21.9132638 61.12687,21.3218253 62.9865136,19.8080468 L61.7787038,17.524067 C60.4903734,18.4749329 59.2039602,18.9884005 57.7239139,18.9884005 L57.7296654,18.9960074 Z M70.6570642,10.0293423 C72.2125941,10.0539744 73.7338735,10.4863466 75.0665284,11.2825835 L73.0381749,21.6451197 L70.5075258,21.6451197 L70.5075258,20.4850633 L70.4174194,20.4850633 C69.6958987,21.4129503 68.5690733,21.940702 67.3883092,21.9037552 C64.9554352,21.9037552 63.6920279,19.9164455 63.6920279,17.3395991 C63.6862764,13.2394655 66.3108662,10.0217354 70.6513127,10.0217354 L70.6570642,10.0293423 Z M71.4450163,13.0112577 C71.0603438,12.884984 70.6577321,12.8207763 70.2525438,12.8210845 C68.2011843,12.8210845 67.1524987,14.7855734 67.1524987,17.1513276 C67.1524987,18.5700195 67.6778001,19.1158165 68.3929002,19.1158165 C69.1808523,19.1158165 69.9266269,18.5719212 70.5151945,17.7846043 L71.4450163,13.0112577 Z M78.8375789,17.9557601 L81.345222,5.14759699 L78.0438753,5.14759699 L75.4921376,18.2086905 C74.9668362,20.9300685 76.1842317,21.89805 79.044632,21.89805 L79.7846551,19.1538511 C78.8318274,19.1557529 78.6401116,18.8704931 78.8318274,17.9481532 L78.8375789,17.9557601 Z M84.226711,17.9557601 L86.7305199,5.15520392 L83.4349246,5.15520392 L80.8831869,18.2086905 C80.3578855,20.9300685 81.575281,21.8999517 84.4375985,21.8999517 L85.1795387,19.1557529 C84.2209596,19.1557529 84.0292437,18.8704931 84.2209596,17.9481532 L84.226711,17.9557601 Z M27.3791315,13.5817772 C27.3803741,6.72261539 22.2244168,0.939649508 15.3613099,0.102485725 C8.49820299,-0.734678058 2.08341608,3.63688505 0.40933122,10.2919931 C-1.26475364,16.9471011 2.32763692,23.7956099 8.78269541,26.2549174 L10.9011554,15.5348557 L11.0219364,14.9263015 C11.3555219,13.2717949 10.9375814,12.8020672 10.0633572,12.8020672 L10.0537714,12.8020672 L6.29422386,13.0740148 L7.47519341,8.69052319 L19.0184039,4.94220997 C19.4996106,4.7824645 20.3335745,4.59799652 20.1361072,5.68198361 L15.9183588,26.9813789 C22.5306209,25.896634 27.3787159,20.2223171 27.37338,13.5741702 L27.3791315,13.5817772 Z" id="Shape"></path>
            </g>
        </g>
    </g>
</svg>