<?xml version="1.0" encoding="UTF-8"?>
<svg width="200" height="120" xmlns="http://www.w3.org/2000/svg">

<path fill-rule="evenodd" clip-rule="evenodd" fill="#FFFFFF" d="M99.839,109.114c-38.166,0-64.042,5.601-68.5,5.601
	c-4.263,0-8.023-2.866-9.247-6.512c-1.223-3.645-11.748-39.938-13.351-45.834c-1.567-5.761,1.701-11.487,9.687-11.487
	c6.883,0,45.574,0,45.574,0v-5.593c-6.149-0.9-9.21-4.191-9.21-7.786c0-2.013,0.873-2.766,1.461-8.235
	c0.274-2.532-1.079-2.2-1.887-2.283c-2.347-0.241-3.587-1.151-4.973-3.578c-0.727-1.268-1.682-4.508-1.682-5.235
	c0-4.599,3.856-6.377,10.414-6.377c4.869,0,9.078,1.375,10.721,4.383c0,0,6.172,0,10.74,0c0-9.17,9.186-10.396,20.253-10.396
	c11.065,0,20.249,1.226,20.249,10.396c4.567,0,10.742,0,10.742,0c1.642-3.008,5.852-4.383,10.72-4.383
	c6.557,0,10.412,1.778,10.412,6.377c0,0.728-0.954,3.967-1.68,5.235c-1.39,2.427-2.629,3.337-4.976,3.578
	c-0.806,0.083-2.161-0.25-1.887,2.283c0.59,5.469,1.464,6.222,1.464,8.235c0,3.594-3.062,6.886-9.212,7.786v5.593
	c0,0,38.69,0,45.573,0c7.987,0,11.253,5.726,9.687,11.487c-1.602,5.896-12.124,42.189-13.351,45.834
	c-1.224,3.646-4.983,6.512-9.244,6.512C163.877,114.715,138.001,109.114,99.839,109.114z"/>
<path fill-rule="evenodd" clip-rule="evenodd" fill="#003671" d="M173.708,19.819h3.979c2.238,0,2.974,1.381,2.974,2.363
	c0,1.46-1.037,2.5-2.563,2.592v0.045c0.771,0.268,1.348,1.042,2.093,2.245l1.096,1.747h-1.775l-0.796-1.401
	c-1.133-2.011-1.573-2.411-2.682-2.411h-0.856v3.812h-1.468V19.819z M177.264,23.748c1.098,0,1.855-0.429,1.855-1.365
	c0-0.813-0.652-1.334-1.608-1.334h-2.335v2.699H177.264z M177.08,17.671c-3.858,0-6.983,3.116-6.983,6.975
	c0,3.864,3.125,6.988,6.983,6.988c3.875,0,7.008-3.124,7.008-6.988C184.088,20.787,180.955,17.671,177.08,17.671z M177.08,33.034
	c-4.629,0-8.343-3.758-8.343-8.388s3.714-8.359,8.343-8.359c4.633,0,8.388,3.729,8.388,8.359S181.713,33.034,177.08,33.034z"/>
<path fill-rule="evenodd" clip-rule="evenodd" fill="#003671" d="M64.002,40.811c-1.127,0.042-3.647-1.298-4.342-1.992
	c-0.465-0.463-0.655-1.163-0.368-2.087c1.069-3.45,1.692-8.286,1.367-12.092c-0.178-2.035-1.278-2.257-3.518-2.257
	c-0.612,0-1.503,0.133-2.245,0.134c-0.791,0.003-1.169-0.267-1.408-0.712c-0.423-0.782-1.161-2.814-1.394-3.752
	c-0.107-0.435,0.135-0.934,0.784-1.142c0.715-0.228,3.097-0.623,5.368-0.623c2.111,0,4.44,0.372,5.682,1.148
	c0.763,0.476,1.114,1.048,1.114,2.067c0,0,0,14.356,0,19.877C65.043,39.941,64.604,40.787,64.002,40.811z M135.402,40.811
	c1.126,0.042,3.646-1.298,4.342-1.992c0.466-0.463,0.657-1.163,0.367-2.087c-1.067-3.45-1.689-8.286-1.364-12.092
	c0.174-2.035,1.276-2.257,3.515-2.257c0.612,0,1.504,0.133,2.246,0.134c0.788,0.003,1.169-0.267,1.405-0.712
	c0.426-0.782,1.163-2.814,1.396-3.752c0.108-0.435-0.134-0.934-0.783-1.142c-0.716-0.228-3.098-0.623-5.369-0.623
	c-2.107,0-4.439,0.372-5.681,1.148c-0.763,0.476-1.118,1.048-1.118,2.067c0,0,0.003,14.356,0.003,19.877
	C134.36,39.941,134.801,40.787,135.402,40.811z M129.905,47.013c0-0.815-0.795-1.474-1.774-1.474H71.305
	c-0.979,0-1.773,0.659-1.773,1.474v2.867c0,0.813,0.794,1.476,1.773,1.476h56.826c0.979,0,1.774-0.662,1.774-1.476V47.013z
	 M129.905,33.385c0-0.815-0.795-1.476-1.774-1.476H71.305c-0.979,0-1.773,0.66-1.773,1.476v6.385c0,0.816,0.794,1.475,1.773,1.475
	h56.826c0.979,0,1.774-0.659,1.774-1.475V33.385z M129.891,23.272v2.865c0,0.816-0.796,1.477-1.772,1.477H71.29
	c-0.979,0-1.774-0.661-1.774-1.477v-2.865c0-0.813,0.796-1.476,1.774-1.476h13.712v-6.012c0-3.315,2.887-3.6,4.912-4.043
	c1.714-0.377,5.364-0.609,9.806-0.628c4.439-0.017,8.088,0.25,9.803,0.628c2.024,0.443,4.913,0.728,4.913,4.043v6.012h13.684
	C129.095,21.797,129.891,22.459,129.891,23.272z M89.796,21.797h19.844v-3.251c0-0.889-0.75-1.598-1.571-1.719
	c-2.447-0.357-4.719-0.542-8.35-0.542c-3.631,0-5.905,0.184-8.352,0.542c-0.823,0.121-1.571,0.83-1.571,1.719V21.797z"/>
<path fill-rule="evenodd" clip-rule="evenodd" fill="#E40520" d="M181.209,56.502l-81.505,0.001l-81.506-0.001
	c-2.716-0.019-4.847,2.377-4.048,5.45c0,0,11.85,40.527,12.825,43.858c0.79,2.602,2.623,3.538,4.899,3.23
	c22.142-3.316,44.737-5.014,67.724-5.014c0.036,0,0.068,0,0.101,0l0,0c0,0,0.002,0,0.005,0h0.002l0,0c0.035,0,0.068,0,0.104,0
	c22.985,0,45.58,1.697,67.722,5.014c2.276,0.308,4.109-0.629,4.9-3.23c0.975-3.331,12.827-43.858,12.827-43.858
	C186.055,58.879,183.924,56.483,181.209,56.502z"/>
<path fill-rule="evenodd" clip-rule="evenodd" fill="#FFFFFF" d="M75.23,64.505c-3.376,0-4.546,0.417-4.546,0.417v32.075
	c0,0,1.29,0.403,4.546,0.403c3.256,0,4.672-0.403,4.672-0.403V64.922C79.902,64.922,78.768,64.505,75.23,64.505z"/>
<path fill-rule="evenodd" clip-rule="evenodd" fill="#FFFFFF" d="M141.896,72.008c0-0.479,0.353-0.823,0.812-0.823l19.157,0.002
	v-6.255c0,0-6.729-0.479-14.502-0.479c-8.05,0-14.688,0.458-14.688,0.458v32.071c0,0,7.308,0.48,14.688,0.48
	c7.438,0,14.502-0.466,14.502-0.466v-6.28h-19.147c-0.469,0-0.815-0.353-0.815-0.813V84.61c0-0.49,0.337-0.808,0.815-0.808h14.016
	v-6.291c0,0-9.659,0-14.025,0c-0.459,0-0.812-0.362-0.812-0.82C141.902,76.687,141.896,72.008,141.896,72.008z"/>
<path fill-rule="evenodd" clip-rule="evenodd" fill="#FFFFFF" d="M119.33,64.508c-3.316,0-4.606,0.414-4.606,0.414v19.495
	c0,0.863-0.866,1.269-1.482,0.393L99.427,64.922c0,0-1.322-0.423-5.002-0.423c-3.679,0-5.843,0.423-5.843,0.423v32.075
	c0,0,1.179,0.403,4.584,0.403c3.34,0,4.634-0.403,4.634-0.403s0-13.522,0-19.334c0-0.927,0.99-1.118,1.418-0.458l13.933,19.792
	c0,0,1.531,0.413,5.379,0.413c3.479,0,5.424-0.413,5.424-0.413V64.922C123.953,64.922,122.449,64.508,119.33,64.508z"/>
<path fill-rule="evenodd" clip-rule="evenodd" fill="#FFFFFF" d="M65.154,64.922c0,0-7.172-0.469-15.922-0.469
	c-8.321,0-16.583,0.469-16.583,0.469v6.577h11.114c0.458,0,0.816,0.36,0.816,0.831v24.675c0,0,1.496,0.385,4.653,0.385
	c3.159,0,4.572-0.385,4.572-0.385V72.33c0-0.471,0.37-0.831,0.829-0.831h10.521V64.922z"/>
</svg>
